<svg width="537" height="468" viewBox="0 0 537 468" fill="none" xmlns="http://www.w3.org/2000/svg">
<g clip-path="url(#clip0_601_11)">
<path fill-rule="evenodd" clip-rule="evenodd" d="M346.777 432.648H169.016C183.204 414.056 194.967 366.152 189.872 329.196H324.67C319.575 366.152 332.596 414.056 346.777 432.648Z" fill="#CAD0D7"/>
<path fill-rule="evenodd" clip-rule="evenodd" d="M137.337 426.255H378.456C390.852 426.255 400.996 435.648 400.996 447.128C400.996 458.608 390.853 468 378.456 468H137.337C124.94 468 114.798 458.607 114.798 447.128C114.797 435.648 124.94 426.255 137.337 426.255Z" fill="#CD1E1E"/>
<path fill-rule="evenodd" clip-rule="evenodd" d="M488.586 0C503.606 0 515.787 11.2796 515.787 25.1942V308.478C515.787 327.417 499.209 342.768 478.758 342.768H37.0281C16.5772 342.768 0 327.417 0 308.478V34.2906C0 15.3516 16.5772 0 37.0281 0H488.586Z" fill="#DC9785"/>
<path fill-rule="evenodd" clip-rule="evenodd" d="M21.4911 254.658H494.296V25.1942C494.297 24.4993 494.15 23.8111 493.864 23.1688C493.577 22.5265 493.157 21.9429 492.626 21.4513C492.096 20.9597 491.466 20.5699 490.773 20.3041C490.08 20.0382 489.337 19.9017 488.586 19.9022H37.0281C28.4392 19.9012 21.4911 26.3366 21.4911 34.2905V254.658Z" fill="#0FC0ED"/>
<path fill-rule="evenodd" clip-rule="evenodd" d="M515.787 274.559V308.478C515.787 327.417 499.209 342.768 478.758 342.768H37.0281C16.5772 342.768 0 327.417 0 308.478V274.559H515.787Z" fill="#CD1E58"/>
<path fill-rule="evenodd" clip-rule="evenodd" d="M237.536 316.741C235.223 316.741 233.004 315.89 231.368 314.375C229.733 312.86 228.814 310.806 228.814 308.664C228.814 306.521 229.733 304.467 231.368 302.952C233.004 301.437 235.223 300.586 237.536 300.586H278.25C280.563 300.586 282.781 301.437 284.417 302.952C286.053 304.467 286.972 306.521 286.972 308.664C286.972 310.806 286.053 312.86 284.417 314.375C282.781 315.89 280.563 316.741 278.25 316.741H237.536Z" fill="#CAD0D7"/>
<path d="M436.554 377.625C492.029 365.377 526.278 313.801 513.052 262.427C499.826 211.054 444.132 179.337 388.657 191.585C333.183 203.833 298.933 255.409 312.159 306.783C325.386 358.156 381.079 389.873 436.554 377.625Z" fill="#242012"/>
<path fill-rule="evenodd" clip-rule="evenodd" d="M378.545 211.066C384.39 211.066 389.511 213.902 393.065 218.486C396.113 222.418 397.999 227.708 397.999 233.423C397.999 239.138 396.113 244.428 393.065 248.361C389.511 252.945 384.39 255.78 378.545 255.78C372.7 255.78 367.579 252.944 364.026 248.361C360.978 244.428 359.092 239.138 359.092 233.423C359.092 227.708 360.978 222.418 364.026 218.486C367.58 213.901 372.701 211.066 378.545 211.066ZM446.504 313.454C452.349 313.454 457.469 316.29 461.023 320.874C464.071 324.806 465.957 330.096 465.957 335.811C465.957 341.526 464.071 346.816 461.023 350.749C457.469 355.333 452.348 358.169 446.504 358.169C440.659 358.169 435.538 355.333 431.983 350.749C428.935 346.816 427.049 341.526 427.049 335.811C427.049 330.096 428.935 324.806 431.983 320.874C435.537 316.29 440.658 313.454 446.504 313.454ZM448.858 328.983C448.094 327.997 447.247 327.387 446.502 327.387C445.758 327.387 444.911 327.997 444.147 328.983C442.877 330.621 442.091 333.027 442.091 335.812C442.091 338.598 442.877 341.004 444.147 342.642C444.911 343.628 445.757 344.238 446.502 344.238C447.247 344.238 448.093 343.628 448.858 342.642C450.127 341.004 450.913 338.598 450.913 335.812C450.913 333.026 450.128 330.62 448.858 328.983ZM405.002 320.42C405.002 318.573 405.795 316.801 407.205 315.494C408.616 314.188 410.529 313.454 412.524 313.454C414.519 313.454 416.432 314.188 417.843 315.494C419.253 316.801 420.046 318.573 420.046 320.42V351.203C420.046 353.05 419.253 354.822 417.843 356.128C416.432 357.435 414.519 358.169 412.524 358.169C410.529 358.169 408.616 357.435 407.205 356.128C405.795 354.822 405.002 353.05 405.002 351.203V320.42ZM378.545 313.454C384.391 313.454 389.511 316.29 393.065 320.874C396.113 324.806 397.999 330.096 397.999 335.811C397.999 341.526 396.113 346.816 393.065 350.749C389.511 355.333 384.39 358.169 378.545 358.169C372.701 358.169 367.58 355.333 364.026 350.749C360.978 346.816 359.092 341.526 359.092 335.811C359.092 330.096 360.978 324.806 364.026 320.874C367.58 316.29 372.701 313.454 378.545 313.454ZM380.901 328.983C380.136 327.997 379.29 327.387 378.545 327.387C377.801 327.387 376.954 327.997 376.19 328.983C374.92 330.621 374.134 333.027 374.134 335.812C374.134 338.598 374.92 341.004 376.19 342.642C376.954 343.628 377.8 344.238 378.545 344.238C379.29 344.238 380.136 343.628 380.901 342.642C382.17 341.004 382.956 338.598 382.956 335.812C382.956 333.026 382.171 330.62 380.901 328.983ZM480.483 262.407C486.329 262.407 491.449 265.243 495.002 269.827C498.051 273.759 499.937 279.049 499.937 284.764C499.937 290.479 498.051 295.769 495.002 299.702C491.449 304.286 486.328 307.121 480.483 307.121C474.639 307.121 469.517 304.286 465.964 299.702C462.915 295.769 461.029 290.479 461.029 284.764C461.029 279.049 462.915 273.759 465.964 269.827C469.516 265.242 474.638 262.407 480.483 262.407ZM482.839 277.935C482.073 276.949 481.228 276.339 480.483 276.339C479.738 276.339 478.892 276.949 478.128 277.935C476.859 279.572 476.073 281.978 476.073 284.764C476.073 287.549 476.859 289.956 478.128 291.594C478.893 292.58 479.737 293.19 480.483 293.19C481.228 293.19 482.073 292.58 482.839 291.594C484.108 289.956 484.894 287.549 484.894 284.764C484.893 281.979 484.108 279.573 482.839 277.935ZM344.567 262.407C350.411 262.407 355.533 265.242 359.086 269.827C362.135 273.759 364.021 279.049 364.021 284.765C364.021 290.48 362.135 295.77 359.086 299.703C355.533 304.287 350.411 307.122 344.567 307.122C338.722 307.122 333.601 304.287 330.048 299.703C326.999 295.77 325.113 290.48 325.113 284.765C325.113 279.05 326.999 273.76 330.048 269.827C333.6 265.242 338.721 262.407 344.567 262.407ZM346.921 277.935C346.157 276.949 345.312 276.339 344.566 276.339C343.821 276.339 342.974 276.949 342.21 277.935C340.941 279.572 340.155 281.978 340.155 284.764C340.155 287.549 340.94 289.956 342.21 291.594C342.974 292.58 343.82 293.19 344.566 293.19C345.311 293.19 346.156 292.58 346.921 291.594C348.191 289.956 348.977 287.549 348.977 284.764C348.977 281.979 348.191 279.573 346.921 277.935ZM438.981 269.373C438.981 267.525 439.773 265.754 441.184 264.447C442.594 263.141 444.508 262.407 446.502 262.407C448.497 262.407 450.411 263.141 451.821 264.447C453.232 265.754 454.024 267.525 454.024 269.373V300.156C454.024 302.003 453.232 303.775 451.821 305.081C450.411 306.387 448.497 307.121 446.502 307.121C444.508 307.121 442.594 306.387 441.184 305.081C439.773 303.775 438.981 302.003 438.981 300.156V269.373ZM371.024 269.373C371.024 267.525 371.816 265.754 373.227 264.447C374.637 263.141 376.551 262.407 378.545 262.407C380.54 262.407 382.454 263.141 383.864 264.447C385.275 265.754 386.067 267.525 386.067 269.373V300.156C386.067 302.003 385.275 303.775 383.864 305.081C382.454 306.387 380.54 307.121 378.545 307.121C376.551 307.121 374.637 306.387 373.227 305.081C371.816 303.775 371.024 302.003 371.024 300.156V269.373ZM412.525 262.26C418.37 262.26 423.491 265.096 427.044 269.679C430.093 273.612 431.979 278.902 431.979 284.617C431.979 290.332 430.093 295.622 427.044 299.554C423.491 304.139 418.37 306.974 412.525 306.974C406.679 306.974 401.558 304.138 398.005 299.554C394.956 295.622 393.07 290.332 393.07 284.617C393.07 278.902 394.956 273.612 398.005 269.679C401.558 265.096 406.679 262.26 412.525 262.26ZM414.879 277.788C414.114 276.802 413.269 276.192 412.524 276.192C411.779 276.192 410.933 276.802 410.169 277.788C408.899 279.426 408.114 281.833 408.114 284.618C408.114 287.403 408.899 289.809 410.169 291.447C410.933 292.433 411.779 293.043 412.524 293.043C413.269 293.043 414.114 292.433 414.879 291.447C416.148 289.809 416.934 287.403 416.934 284.618C416.934 281.833 416.149 279.425 414.879 277.788ZM446.504 211.066C452.348 211.066 457.469 213.902 461.023 218.486C464.071 222.418 465.957 227.708 465.957 233.423C465.957 239.138 464.071 244.428 461.023 248.361C457.469 252.945 452.348 255.78 446.504 255.78C440.658 255.78 435.537 252.944 431.983 248.361C428.935 244.428 427.049 239.138 427.049 233.423C427.049 227.708 428.935 222.418 431.983 218.486C435.537 213.901 440.658 211.066 446.504 211.066ZM448.858 226.594C448.094 225.608 447.247 224.998 446.502 224.998C445.758 224.998 444.911 225.608 444.147 226.594C442.877 228.231 442.091 230.638 442.091 233.423C442.091 236.209 442.877 238.615 444.147 240.253C444.911 241.239 445.758 241.849 446.502 241.849C447.247 241.849 448.093 241.239 448.858 240.253C450.127 238.615 450.913 236.209 450.913 233.423C450.913 230.638 450.128 228.232 448.858 226.594ZM405.002 218.032C405.002 216.185 405.795 214.413 407.205 213.106C408.616 211.8 410.529 211.066 412.524 211.066C414.519 211.066 416.432 211.8 417.843 213.106C419.253 214.413 420.046 216.185 420.046 218.032V248.815C420.046 250.662 419.253 252.434 417.843 253.74C416.432 255.047 414.519 255.78 412.524 255.78C410.529 255.78 408.616 255.047 407.205 253.74C405.795 252.434 405.002 250.662 405.002 248.815V218.032ZM380.901 226.594C380.136 225.608 379.29 224.998 378.545 224.998C377.801 224.998 376.954 225.608 376.19 226.594C374.92 228.231 374.134 230.638 374.134 233.423C374.134 236.209 374.92 238.615 376.19 240.253C376.954 241.239 377.801 241.849 378.545 241.849C379.29 241.849 380.136 241.239 380.901 240.253C382.17 238.615 382.956 236.209 382.956 233.423C382.956 230.638 382.171 228.232 380.901 226.594Z" fill="white"/>
<path fill-rule="evenodd" clip-rule="evenodd" d="M121.8 93.7574L135.306 115.422L155.816 148.321C158.339 152.368 158.339 157.002 155.816 161.048C153.293 165.095 148.96 167.412 143.914 167.412H61.8729C56.8268 167.412 52.4942 165.095 49.9711 161.048C47.4481 157.001 47.4481 152.368 49.9711 148.321L70.4812 115.422L83.9883 93.7574C85.2498 91.7333 85.829 89.7302 85.829 87.3936V43.1888H119.958V87.3946C119.958 89.7302 120.538 91.7333 121.8 93.7574Z" fill="#CC1485"/>
<path fill-rule="evenodd" clip-rule="evenodd" d="M84.8297 30.3111H120.959C122.45 30.3137 123.878 30.8631 124.932 31.8389C125.985 32.8148 126.579 34.1375 126.581 35.5175V46.0219C126.579 47.4019 125.985 48.7247 124.932 49.7005C123.878 50.6763 122.45 51.2257 120.959 51.2283H84.8297C83.3395 51.2255 81.9114 50.676 80.8577 49.7002C79.804 48.7245 79.2107 47.4019 79.2076 46.0219V35.5175C79.2101 34.1374 79.8033 32.8145 80.8571 31.8386C81.9109 30.8628 83.3394 30.3135 84.8297 30.3111Z" fill="#CAD0D7"/>
<path fill-rule="evenodd" clip-rule="evenodd" d="M211.263 184.909L244.984 216.136L234.348 225.986L200.627 194.758L211.263 184.909ZM331.12 73.9129L364.841 105.14L354.205 114.99L320.484 83.7625L331.12 73.9129ZM291.168 110.911L280.532 120.761L314.253 151.988L324.889 142.139L291.168 110.911ZM266.129 124.722L309.975 165.327L299.339 175.176L255.493 134.572L266.129 124.722ZM251.215 147.91L240.579 157.76L274.3 188.988L284.936 179.138L251.215 147.91Z" fill="#FDCD56"/>
<path fill-rule="evenodd" clip-rule="evenodd" d="M186.224 208.569C184.805 209.838 182.905 210.54 180.933 210.525C178.961 210.509 177.074 209.776 175.679 208.485C174.285 207.193 173.494 205.446 173.477 203.62C173.459 201.793 174.218 200.034 175.588 198.72C182.351 192.457 190.608 187.579 200.091 184.332C209.128 181.24 219.295 179.663 230.348 179.825L255.448 180.193C256.309 180.205 257.165 180.205 258.012 180.193C275.13 179.942 289.371 174.556 299.338 165.326C309.304 156.096 315.121 142.908 315.392 127.055C315.405 126.27 315.405 125.478 315.392 124.681L314.994 101.437C314.819 91.2 316.522 81.7842 319.862 73.4163C323.366 64.6345 328.635 56.987 335.398 50.7248C336.816 49.4559 338.716 48.7538 340.689 48.7697C342.661 48.7855 344.547 49.5181 345.942 50.8096C347.337 52.1012 348.128 53.8483 348.145 55.6747C348.162 57.5011 347.404 59.2606 346.034 60.5744C340.782 65.4375 336.689 71.3793 333.965 78.2058C331.23 85.0611 329.835 92.7931 329.98 101.22L330.377 124.464C330.394 125.407 330.394 126.344 330.377 127.274C330.041 146.923 322.648 163.439 309.974 175.176C297.299 186.914 279.466 193.76 258.247 194.071C257.243 194.086 256.231 194.086 255.212 194.071L230.113 193.702C221.014 193.569 212.664 194.861 205.262 197.393C197.891 199.916 191.475 203.705 186.224 208.569Z" fill="#F76C82"/>
<path fill-rule="evenodd" clip-rule="evenodd" d="M230.07 249.174C228.651 250.443 226.751 251.145 224.779 251.129C222.807 251.113 220.92 250.381 219.525 249.089C218.131 247.798 217.34 246.05 217.323 244.224C217.306 242.398 218.064 240.638 219.434 239.324C229.889 229.642 235.777 215.597 235.488 198.679L235.09 175.435C235.074 174.498 235.074 173.562 235.09 172.625C235.426 152.975 242.818 136.46 255.494 124.722C268.168 112.985 286.002 106.139 307.221 105.828C308.232 105.813 309.244 105.813 310.255 105.828L335.355 106.196C344.454 106.33 352.803 105.038 360.206 102.505C367.577 99.9828 373.994 96.1934 379.245 91.3293C380.664 90.0604 382.564 89.3583 384.536 89.3742C386.508 89.3901 388.395 90.1226 389.789 91.4142C391.184 92.7057 391.975 94.4528 391.992 96.2792C392.009 98.1056 391.251 99.8652 389.881 101.179C383.118 107.442 374.861 112.32 365.377 115.566C356.34 118.659 346.173 120.236 335.119 120.074L310.02 119.706C309.165 119.694 308.311 119.694 307.456 119.706C290.337 119.957 276.096 125.343 266.13 134.573C256.163 143.803 250.347 156.991 250.076 172.844C250.063 173.635 250.063 174.427 250.076 175.218L250.473 198.462C250.83 219.342 243.348 236.877 230.07 249.174Z" fill="#147D98"/>
<path fill-rule="evenodd" clip-rule="evenodd" d="M315.395 126.94C315.406 126.193 315.406 125.44 315.393 124.681L314.995 101.438L314.993 101.258H329.981L330.379 124.465C330.393 125.294 330.395 126.12 330.384 126.941L315.395 126.94Z" fill="#F76C82"/>
</g>
<defs>
<clipPath id="clip0_601_11">
<rect width="537" height="468" fill="white"/>
</clipPath>
</defs>
</svg>
